<?xml version="1.0" encoding="UTF-8"?>
<!DOCTYPE svg PUBLIC "-//W3C//DTD SVG 1.1//EN" "http://www.w3.org/Graphics/SVG/1.1/DTD/svg11.dtd">
<svg xmlns="http://www.w3.org/2000/svg" version="1.1" width="436px" height="120px" style="shape-rendering:geometricPrecision; text-rendering:geometricPrecision; image-rendering:optimizeQuality; fill-rule:evenodd; clip-rule:evenodd" xmlns:xlink="http://www.w3.org/1999/xlink">
<g><path style="opacity:1" fill="#ba4b3c" d="M 393.5,-0.5 C 398.5,-0.5 403.5,-0.5 408.5,-0.5C 416.938,2.05116 424.438,6.38449 431,12.5C 432.822,16.1574 434.322,19.8241 435.5,23.5C 435.5,27.5 435.5,31.5 435.5,35.5C 426.932,59.2744 412.598,79.1078 392.5,95C 387.782,98.688 382.782,101.855 377.5,104.5C 377.167,104.5 376.833,104.5 376.5,104.5C 374.757,102.076 373.424,99.409 372.5,96.5C 395.334,83.4989 412.5,65.1656 424,41.5C 427.229,33.4586 427.229,25.4586 424,17.5C 418.308,12.6641 412.142,9.49744 405.5,8C 401.801,7.66587 398.301,7.4992 395,7.5C 384.457,11.0187 374.29,15.5187 364.5,21C 360.538,23.1399 357.204,25.9733 354.5,29.5C 353.833,29.5 353.5,29.1667 353.5,28.5C 353.5,28.1667 353.5,27.8333 353.5,27.5C 354.338,27.1583 354.672,26.4916 354.5,25.5C 354.917,23.0784 356.251,20.9117 358.5,19C 357.906,18.5357 357.239,18.369 356.5,18.5C 367.591,9.78745 379.925,3.45411 393.5,-0.5 Z"/></g>
<g><path style="opacity:1" fill="#c56557" d="M 356.5,18.5 C 357.239,18.369 357.906,18.5357 358.5,19C 356.251,20.9117 354.917,23.0784 354.5,25.5C 353.778,25.0825 353.278,24.4158 353,23.5C 351.748,25.0009 350.748,26.6675 350,28.5C 349.601,28.2716 349.435,27.9382 349.5,27.5C 350.694,23.6367 353.027,20.6367 356.5,18.5 Z"/></g>
<g><path style="opacity:1" fill="#322e2a" d="M -0.5,66.5 C -0.5,62.1667 -0.5,57.8333 -0.5,53.5C 2.76098,36.4979 12.761,25.6646 29.5,21C 38.7814,19.4872 47.4481,21.1539 55.5,26C 57.019,27.3513 58.3523,28.8513 59.5,30.5C 57.6667,32.8333 55.8333,35.1667 54,37.5C 44.0135,28.3209 33.1802,27.1542 21.5,34C 10.1796,46.7566 8.01291,60.9232 15,76.5C 23.5886,88.772 34.7552,91.9387 48.5,86C 51.5,84.1667 54.5,82.3333 57.5,80.5C 62.3027,86.0609 61.3027,90.2276 54.5,93C 32.8524,103.414 15.6857,98.5809 3,78.5C 1.50858,74.4569 0.341911,70.4569 -0.5,66.5 Z"/></g>
<g><path style="opacity:1" fill="#d69289" d="M 354.5,25.5 C 354.672,26.4916 354.338,27.1583 353.5,27.5C 353.5,27.8333 353.5,28.1667 353.5,28.5C 353.167,28.5 352.833,28.5 352.5,28.5C 351.167,28.8333 351.167,29.1667 352.5,29.5C 352.5,30.1667 352.167,30.5 351.5,30.5C 350.662,30.8417 350.328,31.5084 350.5,32.5C 349.833,32.1667 349.167,31.8333 348.5,31.5C 348.232,29.901 348.566,28.5676 349.5,27.5C 349.435,27.9382 349.601,28.2716 350,28.5C 350.748,26.6675 351.748,25.0009 353,23.5C 353.278,24.4158 353.778,25.0825 354.5,25.5 Z"/></g>
<g><path style="opacity:1" fill="#d99c95" d="M 287.5,33.5 C 287.167,33.5 286.833,33.5 286.5,33.5C 288.397,32.1952 290.731,31.5286 293.5,31.5C 295.833,31.6667 298.167,31.8333 300.5,32C 295.981,32.1753 291.647,32.6753 287.5,33.5 Z"/></g>
<g><path style="opacity:0.106" fill="#e2b8b1" d="M 348.5,31.5 C 347.833,32.1667 347.833,32.1667 348.5,31.5 Z"/></g>
<g><path style="opacity:0.792" fill="#d9a098" d="M 304.5,32.5 C 305.833,33.1667 305.833,33.1667 304.5,32.5 Z"/></g>
<g><path style="opacity:1" fill="#d48f85" d="M 286.5,33.5 C 285.432,34.4345 284.099,34.7678 282.5,34.5C 281.833,33.1667 281.167,33.1667 280.5,34.5C 277.546,35.2713 274.546,35.938 271.5,36.5C 271.167,35.1667 270.833,35.1667 270.5,36.5C 270.5,37.1667 270.167,37.5 269.5,37.5C 269.167,36.1667 268.833,36.1667 268.5,37.5C 268.5,38.1667 268.167,38.5 267.5,38.5C 267.5,37.8333 267.167,37.5 266.5,37.5C 268.221,35.3057 270.555,34.139 273.5,34C 277.877,32.7042 282.21,32.5375 286.5,33.5 Z"/></g>
<g><path style="opacity:1" fill="#b94b3c" d="M 286.5,33.5 C 286.833,33.5 287.167,33.5 287.5,33.5C 289.167,33.5 290.833,33.5 292.5,33.5C 290.371,34.2028 288.371,35.2028 286.5,36.5C 284.958,37.3007 283.292,37.634 281.5,37.5C 281.565,37.0618 281.399,36.7284 281,36.5C 279.378,37.0989 277.878,37.7656 276.5,38.5C 275.508,38.3284 274.842,38.6618 274.5,39.5C 273.209,39.2627 272.209,39.596 271.5,40.5C 269.973,40.427 268.973,41.0937 268.5,42.5C 267.5,42.8333 266.833,43.5 266.5,44.5C 265.662,44.8417 265.328,45.5084 265.5,46.5C 265.5,46.8333 265.5,47.1667 265.5,47.5C 264.662,47.8417 264.328,48.5084 264.5,49.5C 264.5,50.1667 264.5,50.8333 264.5,51.5C 263.549,52.9187 263.216,54.5853 263.5,56.5C 263.328,57.4916 263.662,58.1583 264.5,58.5C 265.167,59.1667 265.833,59.8333 266.5,60.5C 266.5,60.8333 266.5,61.1667 266.5,61.5C 266.66,63.1992 266.494,64.8659 266,66.5C 265.617,65.944 265.117,65.6107 264.5,65.5C 264.662,63.4727 264.495,61.4727 264,59.5C 263.503,62.146 263.336,64.8127 263.5,67.5C 263.328,68.4916 263.662,69.1583 264.5,69.5C 264.5,69.8333 264.5,70.1667 264.5,70.5C 265.213,75.9596 267.88,79.9596 272.5,82.5C 270.998,80.825 269.665,78.9917 268.5,77C 271.826,79.4643 275.159,82.2976 278.5,85.5C 279.696,85.1543 279.696,84.6543 278.5,84C 279.094,83.5357 279.761,83.369 280.5,83.5C 302.335,97.5009 326.169,103.168 352,100.5C 354.436,101.355 356.936,102.021 359.5,102.5C 360.167,102.5 360.833,102.5 361.5,102.5C 361.196,103.15 360.863,103.817 360.5,104.5C 362.098,106.698 363.431,109.031 364.5,111.5C 363.833,111.5 363.167,111.5 362.5,111.5C 360.653,110.427 358.653,110.427 356.5,111.5C 355.833,111.5 355.167,111.5 354.5,111.5C 354.631,110.761 354.464,110.094 354,109.5C 352.644,110.38 351.144,110.714 349.5,110.5C 349.082,109.778 348.416,109.278 347.5,109C 341.5,108.333 335.5,108.333 329.5,109C 331.382,109.198 333.048,109.698 334.5,110.5C 334.167,110.5 333.833,110.5 333.5,110.5C 331.167,110.5 328.833,110.5 326.5,110.5C 326.918,109.778 327.584,109.278 328.5,109C 326.109,108.713 323.776,108.213 321.5,107.5C 320.702,107.957 320.369,108.624 320.5,109.5C 319.833,109.5 319.167,109.5 318.5,109.5C 319.602,107.908 318.935,107.075 316.5,107C 314.402,106.322 312.402,106.489 310.5,107.5C 309.833,107.5 309.167,107.5 308.5,107.5C 308.918,106.778 309.584,106.278 310.5,106C 306.899,105.06 303.399,103.893 300,102.5C 299.536,103.094 299.369,103.761 299.5,104.5C 297.297,104.396 295.297,103.73 293.5,102.5C 293.611,101.883 293.944,101.383 294.5,101C 289.093,98.5475 283.926,95.7142 279,92.5C 278.617,93.056 278.117,93.3893 277.5,93.5C 274.865,92.1891 272.531,90.5224 270.5,88.5C 270.611,87.8826 270.944,87.3826 271.5,87C 262.092,78.2373 258.425,67.404 260.5,54.5C 260.5,54.1667 260.5,53.8333 260.5,53.5C 261.038,51.8828 261.371,50.2161 261.5,48.5C 261.5,48.1667 261.5,47.8333 261.5,47.5C 262.338,47.1583 262.672,46.4916 262.5,45.5C 262.5,45.1667 262.5,44.8333 262.5,44.5C 263.167,44.5 263.5,44.1667 263.5,43.5C 263.5,43.1667 263.5,42.8333 263.5,42.5C 264.167,42.5 264.5,42.1667 264.5,41.5C 265.598,40.603 265.598,39.7697 264.5,39C 265.044,38.2828 265.711,37.7828 266.5,37.5C 267.167,37.5 267.5,37.8333 267.5,38.5C 268.167,38.5 268.5,38.1667 268.5,37.5C 268.833,37.5 269.167,37.5 269.5,37.5C 270.167,37.5 270.5,37.1667 270.5,36.5C 270.833,36.5 271.167,36.5 271.5,36.5C 274.546,35.938 277.546,35.2713 280.5,34.5C 281.167,34.5 281.833,34.5 282.5,34.5C 284.099,34.7678 285.432,34.4345 286.5,33.5 Z"/></g>
<g><path style="opacity:1" fill="#d18479" d="M 292.5,33.5 C 302.989,33.4559 312.989,35.6225 322.5,40C 317.762,38.8741 312.928,37.7074 308,36.5C 305.945,37.8503 304.445,37.517 303.5,35.5C 299.226,35.8681 294.892,36.5348 290.5,37.5C 288.901,37.7678 287.568,37.4345 286.5,36.5C 288.371,35.2028 290.371,34.2028 292.5,33.5 Z"/></g>
<g><path style="opacity:0.792" fill="#d89b93" d="M 281.5,37.5 C 281.5,38.1667 281.833,38.5 282.5,38.5C 281.791,39.404 280.791,39.7373 279.5,39.5C 278.791,38.596 277.791,38.2627 276.5,38.5C 277.878,37.7656 279.378,37.0989 281,36.5C 281.399,36.7284 281.565,37.0618 281.5,37.5 Z"/></g>
<g><path style="opacity:1" fill="#bf5849" d="M 282.5,38.5 C 285.167,38.5 287.833,38.5 290.5,38.5C 290.5,39.1667 290.5,39.8333 290.5,40.5C 289.833,40.5 289.167,40.5 288.5,40.5C 286.708,40.366 285.042,40.6993 283.5,41.5C 283.167,41.5 282.833,41.5 282.5,41.5C 281.178,41.67 280.011,41.3366 279,40.5C 278.722,41.4158 278.222,42.0825 277.5,42.5C 275.214,42.595 273.214,43.2616 271.5,44.5C 270.167,44.8333 270.167,45.1667 271.5,45.5C 271.34,47.153 270.674,48.4863 269.5,49.5C 269.167,48.1667 268.833,48.1667 268.5,49.5C 267.681,51.7722 267.015,54.1055 266.5,56.5C 266.5,57.1667 266.833,57.5 267.5,57.5C 268.167,57.5 268.5,57.8333 268.5,58.5C 268.5,61.5 268.5,64.5 268.5,67.5C 267.539,65.7354 267.205,63.7354 267.5,61.5C 267.444,58.483 267.11,58.1497 266.5,60.5C 265.833,59.8333 265.167,59.1667 264.5,58.5C 264.5,57.8333 264.5,57.1667 264.5,56.5C 265.038,54.8828 265.371,53.2161 265.5,51.5C 265.5,50.8333 265.5,50.1667 265.5,49.5C 266.338,49.1583 266.672,48.4916 266.5,47.5C 266.5,46.8333 266.167,46.5 265.5,46.5C 265.328,45.5084 265.662,44.8417 266.5,44.5C 266.435,44.9382 266.601,45.2716 267,45.5C 268.039,44.7562 268.539,43.7562 268.5,42.5C 270.027,42.573 271.027,41.9063 271.5,40.5C 272.791,40.7373 273.791,40.404 274.5,39.5C 276.167,39.5 277.833,39.5 279.5,39.5C 280.791,39.7373 281.791,39.404 282.5,38.5 Z"/></g>
<g><path style="opacity:0.792" fill="#d6948b" d="M 290.5,37.5 C 298.214,37.2651 305.548,38.5984 312.5,41.5C 312.5,41.8333 312.5,42.1667 312.5,42.5C 308.167,41.8333 303.833,41.1667 299.5,40.5C 297.149,38.7971 294.482,38.2971 291.5,39C 292.056,39.3826 292.389,39.8826 292.5,40.5C 291.833,40.5 291.167,40.5 290.5,40.5C 290.5,39.8333 290.5,39.1667 290.5,38.5C 290.5,38.1667 290.5,37.8333 290.5,37.5 Z"/></g>
<g><path style="opacity:1" fill="#c5695c" d="M 299.5,40.5 C 297.167,40.5 294.833,40.5 292.5,40.5C 292.389,39.8826 292.056,39.3826 291.5,39C 294.482,38.2971 297.149,38.7971 299.5,40.5 Z"/></g>
<g><path style="opacity:1" fill="#312d29" d="M 94.5,38.5 C 111.701,40.0051 120.035,49.5051 119.5,67C 118.318,90.1934 106.318,100.193 83.5,97C 77.4477,94.7369 73.281,90.5702 71,84.5C 66.1695,72.3186 67.1695,60.6519 74,49.5C 79.3128,42.7634 86.1461,39.0967 94.5,38.5 Z M 92.5,46.5 C 99.35,47.0013 104.183,50.3347 107,56.5C 110.299,66.0671 109.632,75.4005 105,84.5C 94.1419,93.8445 85.8086,91.8445 80,78.5C 76.9456,67.431 79.1123,57.5977 86.5,49C 88.7226,48.4338 90.7226,47.6005 92.5,46.5 Z"/></g>
<g><path style="opacity:1" fill="#322e29" d="M 206.5,63.5 C 207.5,63.5 208.5,63.5 209.5,63.5C 209.81,60.2869 209.477,57.2869 208.5,54.5C 207.529,49.526 204.529,47.1926 199.5,47.5C 193.187,47.9067 188.02,50.5734 184,55.5C 182.5,53.1667 181,50.8333 179.5,48.5C 181.417,45.4167 184.084,43.25 187.5,42C 195.543,38.6478 203.543,38.3145 211.5,41C 214.728,42.5629 216.895,45.0629 218,48.5C 218.333,60.8333 218.667,73.1667 219,85.5C 219.627,89.5517 221.127,93.2183 223.5,96.5C 220.354,97.2887 217.187,97.9554 214,98.5C 211.602,95.9146 209.935,92.9146 209,89.5C 202.06,97.6934 193.56,99.86 183.5,96C 174.474,86.6435 175.141,77.6435 185.5,69C 191.972,65.132 198.972,63.2986 206.5,63.5 Z M 202.5,70.5 C 204.5,70.5 206.5,70.5 208.5,70.5C 210.951,84.2141 205.284,90.3808 191.5,89C 186.084,83.7706 186.417,78.7706 192.5,74C 195.98,72.8974 199.313,71.7308 202.5,70.5 Z"/></g>
<g><path style="opacity:1" fill="#322e29" d="M 144.5,39.5 C 152.424,38.9074 159.257,41.2408 165,46.5C 168.677,53.8228 167.177,59.9894 160.5,65C 168.811,68.9072 171.977,75.4072 170,84.5C 167.846,91.0059 163.346,94.8392 156.5,96C 146.839,96.4998 137.172,96.6665 127.5,96.5C 127.826,77.9235 127.493,59.4235 126.5,41C 132.681,40.8276 138.681,40.3276 144.5,39.5 Z M 138.5,47.5 C 144.732,46.9386 150.732,47.772 156.5,50C 158.766,54.6463 158.1,58.9796 154.5,63C 149.167,63.6667 143.833,63.6667 138.5,63C 137.19,57.8338 137.19,52.6671 138.5,47.5 Z M 137.5,70.5 C 144.373,69.9653 151.04,70.7986 157.5,73C 160.803,76.795 161.303,80.9617 159,85.5C 158.097,86.7014 156.931,87.5348 155.5,88C 149.881,89.299 144.214,89.6323 138.5,89C 137.524,82.9242 137.19,76.7576 137.5,70.5 Z"/></g>
<g><path style="opacity:0.106" fill="#dfaea7" d="M 288.5,40.5 C 287.121,42.5969 285.455,42.9302 283.5,41.5C 285.042,40.6993 286.708,40.366 288.5,40.5 Z"/></g>
<g><path style="opacity:0.106" fill="#e2b8b1" d="M 312.5,40.5 C 313.833,41.1667 313.833,41.1667 312.5,40.5 Z"/></g>
<g><path style="opacity:0.792" fill="#d9a098" d="M 324.5,41.5 C 323.833,40.1667 323.833,40.1667 324.5,41.5 Z"/></g>
<g><path style="opacity:1" fill="#d59289" d="M 282.5,41.5 C 282.631,42.2389 282.464,42.9056 282,43.5C 280.397,43.1286 278.897,42.7952 277.5,42.5C 278.222,42.0825 278.722,41.4158 279,40.5C 280.011,41.3366 281.178,41.67 282.5,41.5 Z"/></g>
<g><path style="opacity:0.106" fill="#e2b8b1" d="M 324.5,41.5 C 325.552,41.3505 326.552,41.5172 327.5,42C 326.251,42.7401 325.251,42.5735 324.5,41.5 Z"/></g>
<g><path style="opacity:1" fill="#c97062" d="M 352.5,28.5 C 352.833,28.5 353.167,28.5 353.5,28.5C 353.5,29.1667 353.833,29.5 354.5,29.5C 352.21,37.5402 349.043,45.2068 345,52.5C 346.812,45.9285 348.645,39.2619 350.5,32.5C 351.338,32.1583 351.672,31.4916 351.5,30.5C 352.167,30.5 352.5,30.1667 352.5,29.5C 352.5,29.1667 352.5,28.8333 352.5,28.5 Z"/></g>
<g><path style="opacity:0.106" fill="#e0afa9" d="M 312.5,42.5 C 313.239,42.369 313.906,42.5357 314.5,43C 313.563,43.6917 312.897,43.525 312.5,42.5 Z"/></g>
<g><path style="opacity:0.106" fill="#e2b8b1" d="M 275.5,43.5 C 276.833,44.1667 276.833,44.1667 275.5,43.5 Z"/></g>
<g><path style="opacity:1" fill="#d49086" d="M 264.5,41.5 C 264.5,42.1667 264.167,42.5 263.5,42.5C 262.167,42.8333 262.167,43.1667 263.5,43.5C 263.5,44.1667 263.167,44.5 262.5,44.5C 261.167,44.8333 261.167,45.1667 262.5,45.5C 262.672,46.4916 262.338,47.1583 261.5,47.5C 260.167,47.8333 260.167,48.1667 261.5,48.5C 261.371,50.2161 261.038,51.8828 260.5,53.5C 259.833,53.5 259.5,53.8333 259.5,54.5C 259.167,54.5 258.833,54.5 258.5,54.5C 258.771,49.4111 260.271,44.7444 263,40.5C 263.383,41.056 263.883,41.3893 264.5,41.5 Z"/></g>
<g><path style="opacity:0.792" fill="#d9a098" d="M 271.5,44.5 C 272.833,45.1667 272.833,45.1667 271.5,44.5 Z"/></g>
<g><path style="opacity:0.792" fill="#d99d96" d="M 265.5,47.5 C 265.833,47.5 266.167,47.5 266.5,47.5C 266.672,48.4916 266.338,49.1583 265.5,49.5C 265.167,49.5 264.833,49.5 264.5,49.5C 264.328,48.5084 264.662,47.8417 265.5,47.5 Z"/></g>
<g><path style="opacity:1" fill="#797874" d="M 376.5,48.5 C 377.833,49.1667 377.833,49.1667 376.5,48.5 Z"/></g>
<g><path style="opacity:0.765" fill="#8d8b89" d="M 380.5,48.5 C 380.918,49.2216 381.584,49.7216 382.5,50C 381.944,50.3826 381.611,50.8826 381.5,51.5C 381.833,52.8333 382.167,52.8333 382.5,51.5C 383.338,51.8417 383.672,52.5084 383.5,53.5C 382.508,53.3284 381.842,53.6618 381.5,54.5C 379.634,53.9862 377.8,53.3195 376,52.5C 375.5,52.6667 375,52.8333 374.5,53C 375.774,53.9772 375.774,54.8106 374.5,55.5C 374.167,54.8333 373.833,54.1667 373.5,53.5C 373.738,51.5956 374.738,50.2623 376.5,49.5C 376.56,50.0431 376.893,50.3764 377.5,50.5C 378.518,49.8075 379.518,49.1408 380.5,48.5 Z"/></g>
<g><path style="opacity:1" fill="#35312c" d="M 391.5,49.5 C 391.833,49.5 392.167,49.5 392.5,49.5C 392.5,50.1667 392.833,50.5 393.5,50.5C 393.328,51.4916 393.662,52.1583 394.5,52.5C 394.5,52.8333 394.5,53.1667 394.5,53.5C 393.459,58.6594 392.459,58.6594 391.5,53.5C 391.5,52.8333 391.167,52.5 390.5,52.5C 390.5,52.1667 390.5,51.8333 390.5,51.5C 390.328,50.5084 390.662,49.8417 391.5,49.5 Z"/></g>
<g><path style="opacity:0.765" fill="#a6a4a2" d="M 393.5,50.5 C 392.833,50.5 392.5,50.1667 392.5,49.5C 393.078,48.453 393.744,48.6197 394.5,50C 394.272,50.3988 393.938,50.5654 393.5,50.5 Z"/></g>
<g><path style="opacity:1" fill="#585551" d="M 391.5,49.5 C 390.662,49.8417 390.328,50.5084 390.5,51.5C 389.833,51.5 389.5,51.8333 389.5,52.5C 388.127,52.3433 386.793,52.51 385.5,53C 386.738,53.69 386.738,54.19 385.5,54.5C 384.833,54.5 384.5,54.8333 384.5,55.5C 383.486,56.6737 382.153,57.3404 380.5,57.5C 380.557,56.391 380.89,55.391 381.5,54.5C 382.492,54.6716 383.158,54.3382 383.5,53.5C 383.672,52.5084 383.338,51.8417 382.5,51.5C 382.167,51.5 381.833,51.5 381.5,51.5C 381.611,50.8826 381.944,50.3826 382.5,50C 381.584,49.7216 380.918,49.2216 380.5,48.5C 383.47,47.8353 386.47,47.1686 389.5,46.5C 390.425,47.3569 391.092,48.3569 391.5,49.5 Z"/></g>
<g><path style="opacity:0.298" fill="#aeadaa" d="M 394.5,51.5 C 395.833,52.1667 395.833,52.1667 394.5,51.5 Z"/></g>
<g><path style="opacity:0.792" fill="#dba29a" d="M 264.5,51.5 C 264.833,51.5 265.167,51.5 265.5,51.5C 265.371,53.2161 265.038,54.8828 264.5,56.5C 264.167,56.5 263.833,56.5 263.5,56.5C 263.216,54.5853 263.549,52.9187 264.5,51.5 Z"/></g>
<g><path style="opacity:1" fill="#d49086" d="M 268.5,49.5 C 268.833,49.5 269.167,49.5 269.5,49.5C 269.81,52.7131 269.477,55.7131 268.5,58.5C 268.5,57.8333 268.167,57.5 267.5,57.5C 266.833,57.5 266.5,57.1667 266.5,56.5C 267.015,54.1055 267.681,51.7722 268.5,49.5 Z"/></g>
<g><path style="opacity:1" fill="#3f3b36" d="M 373.5,53.5 C 373.833,54.1667 374.167,54.8333 374.5,55.5C 374.5,55.8333 374.5,56.1667 374.5,56.5C 373.167,56.5 372.5,57.1667 372.5,58.5C 369.6,62.482 370.266,65.8153 374.5,68.5C 374.167,69.1667 373.833,69.8333 373.5,70.5C 368.293,71.8316 365.293,69.6649 364.5,64C 365.875,59.124 368.875,55.624 373.5,53.5 Z"/></g>
<g><path style="opacity:1" fill="#8e8b89" d="M 374.5,56.5 C 375.167,56.5 375.5,56.8333 375.5,57.5C 374.508,57.3284 373.842,57.6618 373.5,58.5C 373.167,58.5 372.833,58.5 372.5,58.5C 372.5,57.1667 373.167,56.5 374.5,56.5 Z"/></g>
<g><path style="opacity:1" fill="#83817e" d="M 380.5,57.5 C 380.5,58.1667 380.5,58.8333 380.5,59.5C 379.12,58.2935 377.953,58.6269 377,60.5C 376.51,59.2068 376.343,57.8734 376.5,56.5C 377.959,56.4326 379.292,56.7659 380.5,57.5 Z"/></g>
<g><path style="opacity:0.298" fill="#9f9d9b" d="M 208.5,54.5 C 209.477,57.2869 209.81,60.2869 209.5,63.5C 208.5,63.5 207.5,63.5 206.5,63.5C 208.242,60.8555 208.909,57.8555 208.5,54.5 Z"/></g>
<g><path style="opacity:1" fill="#37332e" d="M 389.5,52.5 C 389.833,52.5 390.167,52.5 390.5,52.5C 390.167,53.1667 389.833,53.8333 389.5,54.5C 389.5,55.5 389.5,56.5 389.5,57.5C 388.167,57.8333 388.167,58.1667 389.5,58.5C 389.328,59.4916 389.662,60.1583 390.5,60.5C 390.5,60.8333 390.5,61.1667 390.5,61.5C 389.508,61.3284 388.842,61.6618 388.5,62.5C 387.833,62.5 387.5,62.8333 387.5,63.5C 387.167,63.5 386.833,63.5 386.5,63.5C 386.5,62.8333 386.167,62.5 385.5,62.5C 382.706,64.2125 379.706,65.5459 376.5,66.5C 375.662,66.1583 375.328,65.4916 375.5,64.5C 378.381,64.1015 381.381,62.9349 384.5,61C 383.318,59.2317 381.985,59.0651 380.5,60.5C 380.5,60.1667 380.5,59.8333 380.5,59.5C 380.5,58.8333 380.5,58.1667 380.5,57.5C 382.153,57.3404 383.486,56.6737 384.5,55.5C 385.167,55.5 385.5,55.1667 385.5,54.5C 386.738,54.19 386.738,53.69 385.5,53C 386.793,52.51 388.127,52.3433 389.5,52.5 Z"/></g>
<g><path style="opacity:1" fill="#393631" d="M 319.5,68.5 C 318.167,69.8333 318.167,71.1667 319.5,72.5C 318.712,75.6209 316.712,77.2876 313.5,77.5C 308.801,76.9351 304.135,76.1018 299.5,75C 300.094,74.5357 300.761,74.369 301.5,74.5C 304.9,75.9862 308.233,75.8195 311.5,74C 310.167,73.3333 310.167,72.6667 311.5,72C 310.906,71.5357 310.239,71.369 309.5,71.5C 308.455,70.1224 307.122,69.1224 305.5,68.5C 305.5,68.1667 305.5,67.8333 305.5,67.5C 308.379,64.9693 307.712,63.9693 303.5,64.5C 302.5,64.5 301.5,64.5 300.5,64.5C 300.918,63.7784 301.584,63.2784 302.5,63C 301.072,62.4209 299.738,62.5876 298.5,63.5C 298.167,63.5 297.833,63.5 297.5,63.5C 297.5,63.1667 297.5,62.8333 297.5,62.5C 303.849,60.1128 310.183,60.6128 316.5,64C 318.141,65.129 319.141,66.629 319.5,68.5 Z"/></g>
<g><path style="opacity:1" fill="#5f5c58" d="M 375.5,57.5 C 375.258,62.5078 376.925,63.5078 380.5,60.5C 381.985,59.0651 383.318,59.2317 384.5,61C 381.381,62.9349 378.381,64.1015 375.5,64.5C 374.262,62.7857 373.595,60.7857 373.5,58.5C 373.842,57.6618 374.508,57.3284 375.5,57.5 Z"/></g>
<g><path style="opacity:0.682" fill="#817f7c" d="M 391.5,53.5 C 392.459,58.6594 393.459,58.6594 394.5,53.5C 395.239,53.369 395.906,53.5357 396.5,54C 396.09,57.635 394.09,60.4684 390.5,62.5C 390.5,62.1667 390.5,61.8333 390.5,61.5C 391.833,61.1667 391.833,60.8333 390.5,60.5C 391.412,59.2618 391.579,57.9285 391,56.5C 390.722,57.4158 390.222,58.0825 389.5,58.5C 389.5,58.1667 389.5,57.8333 389.5,57.5C 389.5,56.5 389.5,55.5 389.5,54.5C 390.492,54.6716 391.158,54.3382 391.5,53.5 Z"/></g>
<g><path style="opacity:1" fill="#676561" d="M 297.5,62.5 C 297.5,62.8333 297.5,63.1667 297.5,63.5C 297.833,64.8333 298.167,64.8333 298.5,63.5C 299.738,62.5876 301.072,62.4209 302.5,63C 301.584,63.2784 300.918,63.7784 300.5,64.5C 299.292,65.2341 297.959,65.5674 296.5,65.5C 295.185,64.1054 295.519,63.1054 297.5,62.5 Z"/></g>
<g><path style="opacity:1" fill="#54514d" d="M 385.5,62.5 C 386.167,62.5 386.5,62.8333 386.5,63.5C 386.833,64.8333 387.167,64.8333 387.5,63.5C 388.167,63.5 388.5,63.1667 388.5,62.5C 389.167,62.5 389.833,62.5 390.5,62.5C 390.084,64.7525 388.751,66.2525 386.5,67C 382.008,67.8914 377.674,69.0581 373.5,70.5C 373.833,69.8333 374.167,69.1667 374.5,68.5C 376.993,68.8693 377.66,68.2027 376.5,66.5C 379.706,65.5459 382.706,64.2125 385.5,62.5 Z"/></g>
<g><path style="opacity:0.298" fill="#a2a09e" d="M 303.5,66.5 C 302.833,67.1667 302.167,67.8333 301.5,68.5C 300.833,68.5 300.167,68.5 299.5,68.5C 299.837,65.6643 301.171,64.9976 303.5,66.5 Z"/></g>
<g><path style="opacity:1" fill="#82807d" d="M 303.5,64.5 C 307.712,63.9693 308.379,64.9693 305.5,67.5C 304.833,67.1667 304.167,66.8333 303.5,66.5C 303.5,65.8333 303.5,65.1667 303.5,64.5 Z"/></g>
<g><path style="opacity:1" fill="#ce7e73" d="M 266.5,61.5 C 266.833,61.5 267.167,61.5 267.5,61.5C 267.205,63.7354 267.539,65.7354 268.5,67.5C 269.11,68.391 269.443,69.391 269.5,70.5C 269.167,70.5 268.833,70.5 268.5,70.5C 268.167,70.5 267.833,70.5 267.5,70.5C 266.729,67.6678 266.062,67.3345 265.5,69.5C 265.167,69.5 264.833,69.5 264.5,69.5C 263.662,69.1583 263.328,68.4916 263.5,67.5C 264.338,67.1583 264.672,66.4916 264.5,65.5C 265.117,65.6107 265.617,65.944 266,66.5C 266.494,64.8659 266.66,63.1992 266.5,61.5 Z"/></g>
<g><path style="opacity:1" fill="#918f8c" d="M 296.5,65.5 C 296.461,66.5832 296.127,67.5832 295.5,68.5C 296.193,69.5178 296.859,70.5178 297.5,71.5C 296.262,71.9268 295.262,71.9268 294.5,71.5C 292.984,68.9196 293.651,66.9196 296.5,65.5 Z"/></g>
<g><path style="opacity:1" fill="#54504c" d="M 299.5,68.5 C 300.167,68.5 300.833,68.5 301.5,68.5C 302.833,68.5 304.167,68.5 305.5,68.5C 305.5,68.8333 305.5,69.1667 305.5,69.5C 304.833,69.5 304.167,69.5 303.5,69.5C 302.069,69.8807 301.236,70.8807 301,72.5C 299.812,71.4366 299.312,70.1033 299.5,68.5 Z"/></g>
<g><path style="opacity:1" fill="#7e7c79" d="M 319.5,68.5 C 320.833,69.8333 320.833,71.1667 319.5,72.5C 318.167,71.1667 318.167,69.8333 319.5,68.5 Z"/></g>
<g><path style="opacity:0.765" fill="#918f8c" d="M 305.5,68.5 C 307.122,69.1224 308.455,70.1224 309.5,71.5C 308.064,71.7546 306.564,72.0879 305,72.5C 304.487,71.4734 303.987,70.4734 303.5,69.5C 304.167,69.5 304.833,69.5 305.5,69.5C 305.5,69.1667 305.5,68.8333 305.5,68.5 Z"/></g>
<g><path style="opacity:1" fill="#cb766a" d="M 258.5,54.5 C 258.833,54.5 259.167,54.5 259.5,54.5C 259.833,54.5 260.167,54.5 260.5,54.5C 258.425,67.404 262.092,78.2373 271.5,87C 270.944,87.3826 270.611,87.8826 270.5,88.5C 260.095,79.6033 256.095,68.2699 258.5,54.5 Z"/></g>
<g><path style="opacity:1" fill="#c76c5f" d="M 267.5,70.5 C 267.833,71.8333 268.167,71.8333 268.5,70.5C 268.833,70.5 269.167,70.5 269.5,70.5C 272.021,75.9227 275.688,80.256 280.5,83.5C 279.761,83.369 279.094,83.5357 278.5,84C 279.696,84.6543 279.696,85.1543 278.5,85.5C 275.159,82.2976 271.826,79.4643 268.5,77C 269.665,78.9917 270.998,80.825 272.5,82.5C 267.88,79.9596 265.213,75.9596 264.5,70.5C 265.167,70.5 265.5,70.1667 265.5,69.5C 266.062,67.3345 266.729,67.6678 267.5,70.5 Z"/></g>
<g><path style="opacity:1" fill="#6e6c68" d="M 297.5,71.5 C 298.833,72.5 300.167,73.5 301.5,74.5C 300.761,74.369 300.094,74.5357 299.5,75C 304.135,76.1018 308.801,76.9351 313.5,77.5C 313.158,78.3382 312.492,78.6716 311.5,78.5C 308.167,77.1667 304.833,77.1667 301.5,78.5C 297.5,77.8333 295.167,75.5 294.5,71.5C 295.262,71.9268 296.262,71.9268 297.5,71.5 Z"/></g>
<g><path style="opacity:1" fill="#38342f" d="M 301.5,78.5 C 304.833,77.1667 308.167,77.1667 311.5,78.5C 308.065,79.3678 304.731,79.3678 301.5,78.5 Z"/></g>
<g><path style="opacity:1" fill="#38322d" d="M 372.5,96.5 C 373.424,99.409 374.757,102.076 376.5,104.5C 375.612,107.054 375.279,109.721 375.5,112.5C 374.842,113.398 374.176,114.398 373.5,115.5C 370.828,114.139 368.495,112.472 366.5,110.5C 364.746,108.325 363.579,105.992 363,103.5C 363.333,103.167 363.667,102.833 364,102.5C 364.546,105.042 365.879,107.042 368,108.5C 368.765,108.43 369.265,108.097 369.5,107.5C 370.117,107.611 370.617,107.944 371,108.5C 371.903,107.299 373.069,106.465 374.5,106C 373.29,104.961 372.29,103.794 371.5,102.5C 370.878,101.373 370.045,100.373 369,99.5C 367.612,99.2144 366.112,99.5477 364.5,100.5C 364.953,99.5416 365.619,98.7083 366.5,98C 363.881,95.8789 361.881,93.3789 360.5,90.5C 359.167,91.1667 358.167,92.1667 357.5,93.5C 359.188,94.5213 360.521,95.8546 361.5,97.5C 361.34,99.153 360.674,100.486 359.5,101.5C 353.673,96.522 351.506,90.1886 353,82.5C 357.546,84.5224 362.046,86.6891 366.5,89C 368.639,91.4784 370.639,93.9784 372.5,96.5 Z M 364.5,100.5 C 363.272,99.6935 362.272,98.6935 361.5,97.5C 360.521,95.8546 359.188,94.5213 357.5,93.5C 358.167,92.1667 359.167,91.1667 360.5,90.5C 361.881,93.3789 363.881,95.8789 366.5,98C 365.619,98.7083 364.953,99.5416 364.5,100.5 Z"/></g>
<g><path style="opacity:0.792" fill="#d28a81" d="M 272.5,82.5 C 273.627,83.1217 274.627,83.955 275.5,85C 273.511,85.5192 272.511,84.6859 272.5,82.5 Z"/></g>
<g><path style="opacity:1" fill="#ca7468" d="M 293.5,102.5 C 287.511,100.509 282.177,97.5095 277.5,93.5C 278.117,93.3893 278.617,93.056 279,92.5C 283.926,95.7142 289.093,98.5475 294.5,101C 293.944,101.383 293.611,101.883 293.5,102.5 Z"/></g>
<g><path style="opacity:1" fill="#736a66" d="M 361.5,97.5 C 362.272,98.6935 363.272,99.6935 364.5,100.5C 363.71,101.401 362.71,102.068 361.5,102.5C 360.833,102.5 360.167,102.5 359.5,102.5C 359.5,102.167 359.5,101.833 359.5,101.5C 360.674,100.486 361.34,99.153 361.5,97.5 Z"/></g>
<g><path style="opacity:1" fill="#71372d" d="M 371.5,102.5 C 370.009,102.901 368.342,103.068 366.5,103C 368.141,104.129 369.141,105.629 369.5,107.5C 369.265,108.097 368.765,108.43 368,108.5C 365.879,107.042 364.546,105.042 364,102.5C 363.667,102.833 363.333,103.167 363,103.5C 363.579,105.992 364.746,108.325 366.5,110.5C 366.5,111.167 366.167,111.5 365.5,111.5C 365.167,111.5 364.833,111.5 364.5,111.5C 363.431,109.031 362.098,106.698 360.5,104.5C 360.863,103.817 361.196,103.15 361.5,102.5C 362.71,102.068 363.71,101.401 364.5,100.5C 366.112,99.5477 367.612,99.2144 369,99.5C 370.045,100.373 370.878,101.373 371.5,102.5 Z"/></g>
<g><path style="opacity:1" fill="#983e32" d="M 371.5,102.5 C 372.29,103.794 373.29,104.961 374.5,106C 373.069,106.465 371.903,107.299 371,108.5C 370.617,107.944 370.117,107.611 369.5,107.5C 369.141,105.629 368.141,104.129 366.5,103C 368.342,103.068 370.009,102.901 371.5,102.5 Z"/></g>
<g><path style="opacity:1" fill="#c5695c" d="M 308.5,107.5 C 305.341,106.669 302.341,105.669 299.5,104.5C 299.369,103.761 299.536,103.094 300,102.5C 303.399,103.893 306.899,105.06 310.5,106C 309.584,106.278 308.918,106.778 308.5,107.5 Z"/></g>
<g><path style="opacity:1" fill="#c97165" d="M 318.5,109.5 C 315.627,109.198 312.961,108.531 310.5,107.5C 312.402,106.489 314.402,106.322 316.5,107C 318.935,107.075 319.602,107.908 318.5,109.5 Z"/></g>
<g><path style="opacity:1" fill="#cb796e" d="M 326.5,110.5 C 324.379,110.675 322.379,110.341 320.5,109.5C 320.369,108.624 320.702,107.957 321.5,107.5C 323.776,108.213 326.109,108.713 328.5,109C 327.584,109.278 326.918,109.778 326.5,110.5 Z"/></g>
<g><path style="opacity:1" fill="#c05c4f" d="M 349.5,110.5 C 344.5,110.5 339.5,110.5 334.5,110.5C 333.048,109.698 331.382,109.198 329.5,109C 335.5,108.333 341.5,108.333 347.5,109C 348.416,109.278 349.082,109.778 349.5,110.5 Z"/></g>
<g><path style="opacity:1" fill="#66625e" d="M 376.5,104.5 C 376.833,104.5 377.167,104.5 377.5,104.5C 377.806,107.385 377.473,110.052 376.5,112.5C 376.167,112.5 375.833,112.5 375.5,112.5C 375.279,109.721 375.612,107.054 376.5,104.5 Z"/></g>
<g><path style="opacity:0.106" fill="#dfada6" d="M 354.5,111.5 C 347.313,111.825 340.313,111.491 333.5,110.5C 333.833,110.5 334.167,110.5 334.5,110.5C 339.5,110.5 344.5,110.5 349.5,110.5C 351.144,110.714 352.644,110.38 354,109.5C 354.464,110.094 354.631,110.761 354.5,111.5 Z"/></g>
<g><path style="opacity:1" fill="#cd7d71" d="M 362.5,111.5 C 360.5,112.833 358.5,112.833 356.5,111.5C 358.653,110.427 360.653,110.427 362.5,111.5 Z"/></g>
<g><path style="opacity:1" fill="#5b5754" d="M 366.5,110.5 C 368.495,112.472 370.828,114.139 373.5,115.5C 374.176,114.398 374.842,113.398 375.5,112.5C 375.833,112.5 376.167,112.5 376.5,112.5C 376.326,114.861 375.993,117.194 375.5,119.5C 375.167,119.5 374.833,119.5 374.5,119.5C 371.5,116.833 368.5,114.167 365.5,111.5C 366.167,111.5 366.5,111.167 366.5,110.5 Z"/></g>
</svg>
