<?xml version="1.0" encoding="utf-8"?>
<!-- Generator: Adobe Illustrator 24.1.2, SVG Export Plug-In . SVG Version: 6.00 Build 0)  -->
<svg version="1.1" id="Food_Delivery_Part_2" xmlns="http://www.w3.org/2000/svg" xmlns:xlink="http://www.w3.org/1999/xlink"
	 x="0px" y="0px" viewBox="0 0 24 24" style="enable-background:new 0 0 24 24;" xml:space="preserve">
<g>
	<path d="M7,21c-1.654,0-3-1.346-3-3s1.346-3,3-3s3,1.346,3,3S8.654,21,7,21z M7,17c-0.551,0-1,0.448-1,1s0.449,1,1,1s1-0.448,1-1
		S7.551,17,7,17z"/>
</g>
<g>
	<path d="M18,21c-1.654,0-3-1.346-3-3s1.346-3,3-3s3,1.346,3,3S19.654,21,18,21z M18,17c-0.552,0-1,0.448-1,1s0.448,1,1,1
		s1-0.448,1-1S18.552,17,18,17z"/>
</g>
<g>
	<polygon points="5,19 2,19 2,4 15,4 15,13 13,13 13,6 4,6 4,17 5,17 	"/>
</g>
<g>
	<rect x="9" y="17" width="7" height="2"/>
</g>
<g>
	<polygon points="22,18 20,18 20,12.333 17.5,9 14,9 14,7 18.5,7 22,11.667 	"/>
</g>
<g>
	<rect x="6" y="11" width="5" height="2"/>
</g>
<g>
	<rect x="6" y="8" width="5" height="2"/>
</g>
</svg>
